# AST/ASF file generated using VICON BodyLanguage
# -----------------------------------------------
:version 1.10
:name VICON
:units
  mass 1.0
  length 0.45
  angle deg
:documentation
   .ast/.asf automatically generated from VICON data using
   VICON BodyBuilder and BodyLanguage model FoxedUp or BRILLIANT.MOD
:root
   order TX TY TZ RX RY RZ
   axis XYZ
   position 0 0 0  
   orientation 0 0 0 
:bonedata
  begin
     id 1 
     name lhipjoint
     direction 0.661853 -0.702389 0.261917 
     length 2.64193 
     axis 0 0 0  XYZ
  end
  begin
     id 2 
     name lfemur
     direction 0.34202 -0.939693 0  
     length 7.01722  
     axis 0 0 20  XYZ
    dof rx ry rz
    limits (-160.0 20.0)
           (-70.0 70.0)
           (-60.0 70.0)
  end
  begin
     id 3 
     name ltibia
     direction 0.34202 -0.939693 0   
     length 8.25008   
     axis 0 0 20   XYZ
    dof rx
    limits (-10.0 170.0)
  end
  begin
     id 4 
     name lfoot
     direction 0.0709916 -0.195048 0.978221   
     length 2.31941   
     axis -90 7.62852e-016 20   XYZ
    dof rx rz
    limits (-45.0 90.0)
           (-70.0 20.0)
  end
  begin
     id 5 
     name ltoes
     direction 1.53586e-011 -4.22017e-011 1   
     length 1.16486   
     axis -90 7.62852e-016 20   XYZ
    dof rx
    limits (-90.0 20.0)
  end
  begin
     id 6 
     name rhipjoint
     direction -0.638185 -0.721362 0.268992   
     length 2.57244  
     axis 0 0 0  XYZ 
  end
  begin
     id 7 
     name rfemur
     direction -0.34202 -0.939693 0   
     length 7.07017   
     axis 0 0 -20   XYZ
    dof rx ry rz
    limits (-160.0 20.0)
           (-70.0 70.0)
           (-70.0 60.0)
  end
  begin
     id 8 
     name rtibia
     direction -0.34202 -0.939693 0   
     length 8.20386   
     axis 0 0 -20   XYZ
    dof rx
    limits (-10.0 170.0)
 end
 begin
     id 9 
     name rfoot
     direction -0.0822429 -0.225961 0.970658   
     length 2.32215  
     axis -90 -7.62852e-016 -20   XYZ
    dof rx rz
    limits (-45.0 90.0)
           (-20.0 70.0)
  end
  begin
     id 10 
     name rtoes
     direction -1.53597e-011 -4.21689e-011 1   
     length 1.16333   
     axis -90 -7.62852e-016 -20   XYZ
    dof rx
    limits (-90.0 20.0)
  end
  begin
     id 11 
     name lowerback
     direction -0.0131557 0.998589 -0.0514484   
     length 2.14993   
     axis 0 0 0   XYZ
    dof rx ry rz
    limits (-20.0 45.0)
           (-30.0 30.0)
           (-30.0 30.0)
  end
  begin
     id 12 
     name upperback
     direction -0.000776481 0.999993 0.00352685   
     length 2.15301   
     axis 0 0 0   XYZ
    dof rx ry rz
    limits (-20.0 45.0)
           (-30.0 30.0)
           (-30.0 30.0)
  end
  begin
     id 13 
     name thorax
     direction 0.00438186 0.999609 0.0276143   
     length 2.15424   
     axis 0 0 0   XYZ
    dof rx ry rz
    limits (-20.0 45.0)
           (-30.0 30.0)
           (-30.0 30.0)
  end
  begin
     id 14 
     name lowerneck
     direction -0.0488006 0.998094 0.0377807   
     length 1.90481   
     axis 0 0 0   XYZ
    dof rx ry rz
    limits (-20.0 45.0)
           (-30.0 30.0)
           (-30.0 30.0)
  end
  begin
     id 15 
     name upperneck
     direction 0.0443769 0.990702 -0.12861   
     length 1.91305   
     axis 0 0 0   XYZ
    dof rx ry rz
    limits (-20.0 45.0)
           (-30.0 30.0)
           (-30.0 30.0)
  end
  begin
     id 16
     name head
     direction 0.0165599 0.998647 -0.0492982  
     length 1.92369  
     axis 0 0 0   XYZ
    dof rx ry rz
    limits (-20.0 45.0)
           (-30.0 30.0)
           (-30.0 30.0)
  end
  begin
     id 17 
     name lclavicle
     direction 0.911936 0.410197 -0.0105506  
     length 3.52622  
     axis 0 0 0   XYZ
    dof ry rz
    limits (-20.0 10.0)
           (0.0 20.0)
  end
  begin
     id 18 
     name lhumerus
     direction 1 -4.48974e-011 -2.48591e-028   
     length 5.47651   
     axis 180 -30 -90   XYZ
    dof rx ry rz
    limits (-60.0 90.0)
           (-90.0 90.0)
           (-90.0 90.0)
  end
  begin
     id 19
     name lradius
     direction 1 -4.48938e-011 -4.40099e-027   
     length 3.09058   
     axis 180 -30 -90   XYZ
    dof rx
    limits (-10.0 170.0)
  end
  begin
     id 20
     name lwrist
     direction 1 -4.49042e-011 -2.99852e-027   
     length 1.54529   
     axis 1.95339e-015 90 90   XYZ
    dof ry
    limits (-180.0 0.0)
 end
  begin
     id 21 
     name lhand
     direction 1 -4.48815e-011 -5.98193e-027   
     length 0.771611   
     axis 3.82337e-015 90 90   XYZ
    dof rx rz
    limits (-90.0 90.0)
           (-45.0 45.0)
  end
  begin
     id 22 
     name lfingers
     direction 1 -4.49034e-011 -1.1993e-026   
     length 0.622093   
     axis 7.64668e-015 90 90   XYZ
    dof rx
    limits (0.0 90.0)
  end
  begin
     id 23
     name lthumb
     direction 0.707107 -6.34867e-011 0.707107   
     length 0.893204   
     axis -90 45 -1.62303e-014   XYZ
    dof rx rz
    limits (-45.0 45.0)
           (-45.0 45.0)
  end
  begin
     id 24 
     name rclavicle
     direction -0.93442 0.355634 -0.0195692   
     length 3.62463  
     axis 0 0 0   XYZ 
    dof ry rz
    limits (-10.0 20.0)
           (-20.0 0.0)
  end
  begin
     id 25 
     name rhumerus
     direction -1 -4.48957e-011 -1.19147e-027  
     length 5.14182   
     axis 180 30 90   XYZ
    dof rx ry rz
    limits (-90.0 60.0)
           (-90.0 90.0)
           (-90.0 90.0)
  end
  begin
     id 26 
     name rradius
     direction -1 -4.48952e-011 -3.81062e-027   
     length 3.35565   
     axis 180 30 90   XYZ
    dof rx
    limits (-10.0 170.0)
  end
  begin
     id 27 
     name rwrist
     direction -1 -4.48973e-011 -2.99621e-027   
     length 1.67782   
     axis 1.95339e-015 -90 -90   XYZ
    dof ry
    limits (-180.0 0.0)
  end
  begin
     id 28
     name rhand
     direction -1 -4.48895e-011 -5.98727e-027   
     length 0.801042   
     axis 3.82337e-015 -90 -90   XYZ
    dof rx rz
    limits (-90.0 90.0)
           (-45.0 45.0)
  end
  begin
     id 29
     name rfingers
     direction -1 -4.49065e-011 -1.19972e-026   
     length 0.645821   
     axis 7.64668e-015 -90 -90   XYZ
    dof rx
    limits (0.0 90.0)
  end
  begin
     id 30
     name rthumb
     direction -0.707107 -6.34957e-011 0.707107   
     length 0.927273   
     axis -90 -45 1.62303e-014   XYZ
    dof rx rz
    limits (-45.0 45.0)
           (-45.0 45.0)
  end
:hierarchy
  begin
    root lhipjoint rhipjoint lowerback
    lhipjoint lfemur
    lfemur ltibia
    ltibia lfoot
    lfoot ltoes
    rhipjoint rfemur
    rfemur rtibia
    rtibia rfoot
    rfoot rtoes
    lowerback upperback
    upperback thorax
    thorax lowerneck lclavicle rclavicle
    lowerneck upperneck
    upperneck head
    lclavicle lhumerus
    lhumerus lradius
    lradius lwrist
    lwrist lhand lthumb
    lhand lfingers
    rclavicle rhumerus
    rhumerus rradius
    rradius rwrist
    rwrist rhand rthumb
    rhand rfingers
  end

#!OML:ASF E:\Style4\Style4.ASF
:FULLY-SPECIFIED
:DEGREES
350
root -0.623124 17.4887 -2.42992 8.16413 -12.8245 -4.79453
lowerback 18.1196 1.15763 -7.52792
upperback 12.2824 0.346732 -3.43305
thorax 3.13091 -0.201113 0.52361
lowerneck 4.59242 -15.0202 -10.1663
upperneck 22.3297 -19.2623 -3.79833
head 6.82223 -10.1965 -0.597568
rclavicle 1.59028e-014 6.36111e-015
rhumerus 78.0354 5.24634 -386.412
rradius 19.8954
rwrist 400.365
rhand 5.33277 8.29083
rfingers 7.12502
rthumb 30.6873 -19.1698
lclavicle 1.59028e-014 6.36111e-015
lhumerus 62.0577 36.8947 28.7288
lradius 107.171
lwrist 81.2452
lhand 28.9294 37.7667
lfingers 7.12502
lthumb 52.7419 57.4211
rfemur -30.5824 2.22877 27.9034
rtibia 35.4667
rfoot -11.5075 -10.2521
rtoes -5.5401
lfemur -31.3378 10.8335 -11.0899
ltibia 43.7806
lfoot -18.5121 13.5305
ltoes -16.5279
351
root -0.662246 17.4808 -2.42586 8.10024 -12.0386 -4.69269
lowerback 18.1724 1.26007 -7.08605
upperback 12.3571 0.5468 -3.6157
thorax 3.17041 -0.0655904 0.0525914
lowerneck 4.37534 -15.0088 -10.0126
upperneck 22.4517 -19.2554 -3.57839
head 6.90213 -10.1684 -0.57527
rclavicle 2.54444e-014 -4.45278e-014
rhumerus 77.8922 5.43086 -386.893
rradius 19.8764
rwrist 401.091
rhand 5.85134 8.46261
rfingers 7.12502
rthumb 31.1817 -18.9041
lclavicle 2.54444e-014 -4.45278e-014
lhumerus 62.6182 36.7885 28.9438
lradius 107.183
lwrist 81.1554
lhand 28.877 37.7061
lfingers 7.12502
lthumb 52.6946 57.3899
rfemur -30.6684 1.86289 27.9439
rtibia 35.7713
rfoot -11.7809 -10.6329
rtoes -5.20019
lfemur -31.5166 10.3907 -11.0421
ltibia 43.8031
lfoot -18.2338 13.2898
ltoes -16.6897
352
root -0.703965 17.4729 -2.42271 8.02226 -11.2478 -4.56245
lowerback 18.2167 1.43486 -6.78698
upperback 12.448 0.82318 -3.75918
thorax 3.23584 0.0976121 -0.309563
lowerneck 4.31411 -15.0315 -9.54538
upperneck 22.32 -19.3027 -3.45828
head 6.82933 -10.1464 -0.594547
rclavicle 4.77083e-015 1.59028e-014
rhumerus 77.6803 5.60357 -386.546
rradius 19.9714
rwrist 400.628
rhand 6.41226 8.28378
rfingers 7.12502
rthumb 31.7161 -18.9787
lclavicle 4.77083e-015 1.59028e-014
lhumerus 63.254 36.6478 29.2644
lradius 107.032
lwrist 80.8509
lhand 29.623 37.2491
lfingers 7.12502
lthumb 53.3677 56.5059
rfemur -30.7456 1.53214 27.954
rtibia 36.0726
rfoot -12.0092 -11.0779
rtoes -5.1193
lfemur -31.6918 9.97979 -11.027
ltibia 43.834
lfoot -17.9379 13.0651
ltoes -17.2606
353
root -0.742843 17.4663 -2.41805 8.01494 -10.4556 -4.53317
lowerback 18.1395 1.53443 -6.59602
upperback 12.5217 0.998993 -3.74639
thorax 3.34937 0.196847 -0.428048
lowerneck 4.51677 -14.9069 -9.43873
upperneck 21.9247 -19.1965 -3.20543
head 6.67503 -10.0655 -0.487043
rclavicle -3.33958e-014 -1.43125e-014
rhumerus 77.7176 6.01544 -385.402
rradius 20.1464
rwrist 399.433
rhand 6.48183 7.82368
rfingers 7.12502
rthumb 31.7823 -19.4257
lclavicle -3.33958e-014 -1.43125e-014
lhumerus 63.426 36.742 29.4843
lradius 107.016
lwrist 80.7642
lhand 29.8725 37.3676
lfingers 7.12502
lthumb 53.5923 56.4776
rfemur -30.8716 1.16842 28.0635
rtibia 36.383
rfoot -12.3078 -11.3987
rtoes -4.67277
lfemur -31.9066 9.54459 -10.9031
ltibia 43.864
lfoot -17.7271 12.8502
ltoes -17.835
354
root -0.780162 17.4577 -2.41293 7.98666 -9.67786 -4.54589
lowerback 18.1214 1.7049 -6.02714
upperback 12.6617 1.31547 -3.88527
thorax 3.50861 0.395845 -0.940447
lowerneck 4.4095 -14.9362 -9.20544
upperneck 21.9245 -19.2817 -2.84977
head 6.70475 -10.0657 -0.425349
rclavicle -2.70347e-014 -1.59028e-014
rhumerus 77.3532 6.11392 -385.297
rradius 20.2144
rwrist 399.408
rhand 6.59883 7.58117
rfingers 7.12502
rthumb 31.8938 -19.646
lclavicle -2.70347e-014 -1.59028e-014
lhumerus 64.223 36.6272 29.9294
lradius 107.137
lwrist 80.8795
lhand 29.0296 37.9419
lfingers 7.12502
lthumb 52.8324 57.5398
rfemur -30.9628 0.831438 28.2207
rtibia 36.698
rfoot -12.5631 -11.8135
rtoes -4.42451
lfemur -32.0792 9.06561 -10.7218
ltibia 43.8663
lfoot -17.5522 12.6751
ltoes -18.3648
355
root -0.818283 17.4508 -2.40848 7.93863 -8.85209 -4.46405
lowerback 18.1008 1.76615 -6.38455
upperback 12.5699 1.35164 -3.61462
thorax 3.40707 0.386545 -0.457406
lowerneck 4.74339 -14.6673 -9.46061
upperneck 21.7797 -18.9422 -2.84401
head 6.61877 -9.91793 -0.334308
rclavicle 1.43125e-014 4.29375e-014
rhumerus 77.7667 7.02584 -385.587
rradius 20.3487
rwrist 400.06
rhand 7.48299 7.35695
rfingers 7.12502
rthumb 32.7353 -19.6987
lclavicle 1.43125e-014 4.29375e-014
lhumerus 63.4619 36.6728 29.5796
lradius 107.053
lwrist 80.7496
lhand 28.6504 37.9048
lfingers 7.12502
lthumb 52.4896 57.7151
rfemur -31.0724 0.452822 28.2882
rtibia 37.0195
rfoot -12.7615 -12.2973
rtoes -4.79517
lfemur -32.2459 8.53694 -10.6363
ltibia 43.8569
lfoot -17.4774 12.3758
ltoes -18.0587
356
root -0.855502 17.4451 -2.40248 7.89827 -8.04018 -4.25114
lowerback 18.1508 1.96573 -5.9134
upperback 12.7335 1.68846 -3.81419
thorax 3.56467 0.593275 -0.98419
lowerneck 4.30364 -14.7372 -9.21708
upperneck 21.9941 -19.0552 -2.47041
head 6.77466 -9.93042 -0.309043
rclavicle 3.02153e-014 -7.95139e-015
rhumerus 77.2764 6.93744 -386.721
rradius 20.3023
rwrist 401.339
rhand 8.03299 7.09572
rfingers 7.12502
rthumb 33.2584 -19.8496
lclavicle 3.02153e-014 -7.95139e-015
lhumerus 64.3675 36.5337 30.0258
lradius 107.039
lwrist 80.6712
lhand 28.8055 37.6461
lfingers 7.12502
lthumb 52.6299 57.37
rfemur -31.2276 0.0281108 28.2196
rtibia 37.3572
rfoot -12.9155 -12.7889
rtoes -5.55336
lfemur -32.4315 8.02768 -10.7163
ltibia 43.8425
lfoot -17.348 12.0423
ltoes -17.7577
357
root -0.890038 17.4359 -2.39875 7.86093 -7.18997 -4.09134
lowerback 18.0897 2.11786 -5.96286
upperback 12.8214 1.89883 -3.67234
thorax 3.68373 0.690088 -0.835076
lowerneck 3.57696 -14.7484 -9.02103
upperneck 22.7957 -18.9164 -2.91539
head 7.08867 -9.87885 -0.553671
rclavicle 3.18055e-015 3.02153e-014
rhumerus 77.293 7.35764 -386.324
rradius 20.4302
rwrist 401.567
rhand 8.42791 6.8019
rfingers 7.12502
rthumb 33.6338 -20.0624
lclavicle 3.18055e-015 3.02153e-014
lhumerus 64.5487 36.6087 30.3596
lradius 107.085
lwrist 80.5423
lhand 29.3417 37.6302
lfingers 7.12502
lthumb 53.1142 57.05
rfemur -31.3921 -0.440943 28.1861
rtibia 37.7131
rfoot -13.2103 -13.1465
rtoes -5.42126
lfemur -32.6666 7.49059 -10.7521
ltibia 43.8451
lfoot -16.9785 11.9268
ltoes -18.8088
358
root -0.92548 17.4268 -2.39689 7.86999 -6.2895 -4.00787
lowerback 18.5959 2.50045 -3.56876
upperback 13.7756 2.74544 -4.5772
thorax 4.62001 1.31801 -3.28028
lowerneck 1.47928 -15.5084 -7.99192
upperneck 22.4426 -20.159 -1.12695
head 7.43072 -10.254 -0.41314
rclavicle 3.18055e-015 6.36111e-015
rhumerus 75.7277 4.64615 -388.272
rradius 20.0697
rwrist 402.824
rhand 9.29144 6.90452
rfingers 7.12502
rthumb 34.454 -19.7773
lclavicle 3.18055e-015 6.36111e-015
lhumerus 69.169 36.5627 32.7839
lradius 106.968
lwrist 79.8507
lhand 30.0071 37.5369
lfingers 7.12502
lthumb 53.7134 56.5669
rfemur -31.5811 -0.929527 28.2463
rtibia 38.0588
rfoot -13.5579 -13.4681
rtoes -4.75463
lfemur -32.9684 6.95592 -10.7035
ltibia 43.8581
lfoot -16.6592 11.7737
ltoes -19.9009
359
root -0.95931 17.4196 -2.39244 7.92897 -5.42188 -3.91467
lowerback 18.6318 2.55804 -3.27516
upperback 13.8362 2.8722 -4.60616
thorax 4.69041 1.4105 -3.4952
lowerneck 1.46048 -15.3958 -8.05001
upperneck 22.29 -20.0752 -0.712763
head 7.42952 -10.1874 -0.271805
rclavicle -1.27222e-014 -9.22361e-014
rhumerus 75.8331 4.86037 -389.277
rradius 19.8964
rwrist 403.451
rhand 10.564 7.1455
rfingers 7.12502
rthumb 35.6611 -19.2536
lclavicle -1.27222e-014 -9.22361e-014
lhumerus 69.3944 36.6732 32.815
lradius 106.909
lwrist 79.7169
lhand 30.0089 37.3907
lfingers 7.12502
lthumb 53.715 56.4196
rfemur -31.7903 -1.40902 28.3002
rtibia 38.3759
rfoot -13.9072 -13.7866
rtoes -4.18595
lfemur -33.2889 6.423 -10.6698
ltibia 43.8708
lfoot -16.5127 11.4839
ltoes -19.6194
